<?xml version="1.0" encoding="utf-8"?>
<!-- Svg Vector Icons : http://www.onlinewebfonts.com/icon -->
<!DOCTYPE svg PUBLIC "-//W3C//DTD SVG 1.1//EN" "http://www.w3.org/Graphics/SVG/1.1/DTD/svg11.dtd">
<svg version="1.1" xmlns="http://www.w3.org/2000/svg" xmlns:xlink="http://www.w3.org/1999/xlink" x="0px" y="0px" viewBox="0 0 256 256" enable-background="new 0 0 256 256" xml:space="preserve">
<metadata> Svg Vector Icons : http://www.onlinewebfonts.com/icon </metadata>
<g><g><path fill="#000000" d="M128,212.3c3.1,0,5.6-2.5,5.6-5.6v-118c0-3.1-2.5-5.6-5.6-5.6s-5.6,2.5-5.6,5.6v118C122.4,209.8,124.9,212.3,128,212.3z M99.9,212.3c3.1,0,5.6-2.5,5.6-5.6l-5.6-118c0-3.1-2.5-5.6-5.6-5.6c-3.1,0-5.6,2.5-5.6,5.6l5.6,118C94.3,209.8,96.8,212.3,99.9,212.3z M229.2,49.3h-50.6V32.5c0-12.4-10.1-22.5-22.5-22.5H99.9c-12.4,0-22.5,10.1-22.5,22.5v16.9H26.8c-3.1,0-5.6,2.5-5.6,5.6c0,3.1,2.5,5.6,5.6,5.6h23.6l15.8,163c0,12.4,10.1,22.5,22.5,22.5h78.7c12.4,0,22.5-10.1,22.5-22.5l15.8-163h23.6c3.1,0,5.6-2.5,5.6-5.6C234.8,51.9,232.3,49.3,229.2,49.3z M88.7,32.5c0-6.2,5-11.2,11.2-11.2h56.2c6.2,0,11.2,5,11.2,11.2v16.9H88.7V32.5z M178.6,223.6c0,6.2-5,11.2-11.2,11.2H88.7c-6.2,0-11.2-5-11.2-11.2l-15.8-163h132.7L178.6,223.6z M156.1,212.3c3.1,0,5.6-2.5,5.6-5.6l5.6-118c0-3.1-2.5-5.6-5.6-5.6c-3.1,0-5.6,2.5-5.6,5.6l-5.6,118C150.5,209.8,153,212.3,156.1,212.3z"/></g></g>
</svg>